<svg xmlns="http://www.w3.org/2000/svg" width="1200" height="650" viewBox="0 0 1200 650">
  <style>text{font-family:Arial,sans-serif;font-size:16px;} .small{font-size:14px;} .oval{fill:#fff;stroke:#333;stroke-width:2;} </style>
  <rect x="200" y="70" width="900" height="500" fill="none" stroke="#333" stroke-width="2"/>
  <text x="650" y="100" text-anchor="middle">Return to Monkee MVP</text>
  <circle cx="95" cy="170" r="22" fill="none" stroke="#333" stroke-width="2"/>
  <line x1="95" y1="192" x2="95" y2="265" stroke="#333" stroke-width="2"/>
  <line x1="58" y1="220" x2="132" y2="220" stroke="#333" stroke-width="2"/>
  <line x1="95" y1="265" x2="65" y2="320" stroke="#333" stroke-width="2"/>
  <line x1="95" y1="265" x2="125" y2="320" stroke="#333" stroke-width="2"/>
  <text x="95" y="350" text-anchor="middle">Nutzer</text>
  <ellipse cx="560" cy="190" rx="280" ry="60" class="oval"/>
  <text x="560" y="180" text-anchor="middle">Zeitlimit-Workflow</text>
  <text x="560" y="205" text-anchor="middle" class="small">Regel -> Ueberschreitung -> Intervention -> Statistik</text>
  <ellipse cx="560" cy="325" rx="280" ry="60" class="oval"/>
  <text x="560" y="315" text-anchor="middle">Schlafenszeit-Workflow</text>
  <text x="560" y="340" text-anchor="middle" class="small">Setzen -> Reminder -> Bestaetigung</text>
  <ellipse cx="560" cy="460" rx="300" ry="60" class="oval"/>
  <text x="560" y="450" text-anchor="middle">Bewegungspausen-Workflow</text>
  <text x="560" y="475" text-anchor="middle" class="small">Intervall -> Reminder -> bestaetigt/ignoriert</text>
  <line x1="140" y1="220" x2="280" y2="190" stroke="#333" stroke-width="2"/>
  <line x1="140" y1="235" x2="280" y2="325" stroke="#333" stroke-width="2"/>
  <line x1="140" y1="250" x2="260" y2="460" stroke="#333" stroke-width="2"/>
</svg>
